<svg xmlns="http://www.w3.org/2000/svg" version="1.1" viewBox="-5.0 -10.0 110.0 135.0">
 <path d="m7.9062 95h84.203c0.4375 0 0.78125-0.34375 0.78125-0.78125v-3.5156c0-0.4375-0.34375-0.78125-0.78125-0.78125h-2.9531v-2.7344c0-0.4375-0.34375-0.78125-0.78125-0.78125h-1.4531v-29.875h2c0.26562 0 0.5-0.125 0.64062-0.34375s0.17188-0.48438 0.078125-0.73438l-7.4219-18.531c-0.125-0.29688-0.40625-0.48438-0.71875-0.48438h-21.062l11.844-3.5469c0.32812-0.09375 0.5625-0.40625 0.5625-0.75v-10.375l12.609-4.0156c0.0625-0.015625 0.10938-0.0625 0.17188-0.09375 0.015625-0.015625 0.046875-0.015625 0.0625-0.03125 0.10938-0.09375 0.20312-0.20312 0.25-0.34375 0-0.015625 0.015625-0.015625 0.03125-0.03125 0.015625-0.03125 0-0.046875 0.015625-0.078125 0.015625-0.046875 0.015625-0.10938 0.015625-0.15625s0-0.10938-0.015625-0.15625c0-0.03125 0-0.046875-0.015625-0.078125 0-0.015625-0.015625-0.03125-0.03125-0.0625-0.015625-0.046875-0.046875-0.09375-0.078125-0.14062s-0.0625-0.078125-0.09375-0.10938-0.078125-0.0625-0.10938-0.09375c-0.046875-0.03125-0.09375-0.0625-0.14062-0.078125-0.015625-0.015625-0.03125-0.03125-0.0625-0.03125l-35.219-11.219c-0.15625-0.046875-0.3125-0.046875-0.46875 0l-35.219 11.203c-0.015625 0-0.03125 0.015625-0.0625 0.03125-0.046875 0.015625-0.09375 0.046875-0.14062 0.078125s-0.078125 0.0625-0.10938 0.09375-0.0625 0.078125-0.09375 0.10938c-0.03125 0.046875-0.046875 0.09375-0.078125 0.14062 0 0.015625-0.015625 0.03125-0.03125 0.046875-0.015625 0.03125 0 0.046875-0.015625 0.078125-0.015625 0.046875-0.015625 0.10938-0.015625 0.15625s0 0.10938 0.015625 0.15625c0 0.03125 0 0.046875 0.015625 0.078125 0 0.015625 0.015625 0.03125 0.03125 0.0625 0.015625 0.046875 0.046875 0.09375 0.078125 0.14062s0.0625 0.078125 0.09375 0.10938 0.078125 0.0625 0.10938 0.09375c0.046875 0.03125 0.09375 0.0625 0.14062 0.078125 0.015625 0.015625 0.03125 0.03125 0.0625 0.03125l8.2969 2.6406-0.17188 8.5938c-0.89062 0.28125-1.5312 1.0938-1.5312 2.0781 0 0.95312 0.60938 1.75 1.4531 2.0469l-0.03125 1.6094c-0.25 0.09375-0.4375 0.29688-0.48438 0.57812l-0.23438 1.1719h-3.3438c-0.3125 0-0.60938 0.1875-0.71875 0.48438l-7.4375 18.516c-0.09375 0.23438-0.0625 0.51562 0.078125 0.73438s0.39062 0.34375 0.64062 0.34375h2v29.875h-1.4375c-0.4375 0-0.78125 0.34375-0.78125 0.78125v2.7344h-2.9375c-0.4375 0-0.78125 0.34375-0.78125 0.78125v3.5156c0 0.42188 0.34375 0.78125 0.78125 0.78125zm73.078-57 6.7812 16.969h-1.5938-0.03125-7.8906l-21.094-16.969zm-22.656 32.672h-16.656c-0.4375 0-0.78125 0.34375-0.78125 0.78125v14.734l-10.969-0.078125v-29.922l20.078-15.703 20.078 15.641v30.266l-10.969-0.078125v-14.859c0-0.42188-0.34375-0.78125-0.78125-0.78125zm-0.78125 1.5625v14.062l-6.7656-0.046875v-14.031h6.7656zm-8.3281 0v14.016l-6.7656-0.046875v-13.969zm1.2656-33.359c-0.28125-0.21875-0.6875-0.21875-0.96875 0l-20.547 16.078h-4.7188l20.984-17.109h0.015625l4.5781-3.7344 25.938 20.859h-4.625zm-22.125 17.641v29.891h-13.719v-29.875h9.7812 0.015625 3.9219zm43.281 0h4.0938 0.03125 9.5938v29.891h-13.719zm-0.35938-24.969-16.141 4.8281-4.8438-3.8906c-0.28125-0.23438-0.70312-0.23438-0.98438 0l-4.7188 3.8438-15.875-4.7969v-9.3125l21.047 6.7031c0.078125 0.03125 0.15625 0.03125 0.23438 0.03125s0.15625-0.015625 0.23438-0.03125l21.047-6.7031zm-47.047-2.4844 0.15625-8.1875 2.7656 0.875v10.375c0 0.34375 0.21875 0.65625 0.5625 0.75l11.766 3.5469h-14.672l-0.23438-1.1719c-0.046875-0.25-0.21875-0.45312-0.45312-0.54688l0.03125-1.6719c0.78125-0.32812 1.3438-1.1094 1.3438-2.0156 0-0.85938-0.53125-1.6094-1.2656-1.9531zm-6.875-12.062 32.641-10.391 32.641 10.391-32.641 10.375-22.734-7.2344 19.062-2.3281c0.625 0.84375 2.1875 1.2344 3.6562 1.2344 1.9062 0 3.9531-0.64062 3.9531-2.0625s-2.0469-2.0625-3.9531-2.0625c-1.5312 0-3.1406 0.42188-3.7188 1.3125l-22.594 2.75zm30.328 0c0.29688-0.20312 1.0938-0.5 2.3125-0.5s2.0156 0.29688 2.3125 0.5c-0.29688 0.20312-1.0938 0.5-2.3125 0.5s-2.0156-0.3125-2.3125-0.5zm-24.375 13.422c0.34375 0 0.625 0.28125 0.625 0.625s-0.28125 0.625-0.625 0.625-0.60938-0.28125-0.60938-0.625 0.26562-0.625 0.60938-0.625zm0.4375 8.6875h-0.875l0.4375-2.1562zm-11.516 15.859 6.7812-16.969h2.5l-0.35938 1.75c-0.046875 0.23438 0.015625 0.46875 0.15625 0.65625s0.375 0.28125 0.60938 0.28125h2.7969c0.23438 0 0.45312-0.10938 0.60938-0.28125 0.15625-0.1875 0.20312-0.42188 0.15625-0.65625l-0.35938-1.75h17.453l-20.812 16.953h-7.9062-0.015625-1.6094zm0.17188 33h29.203c0.015625 0 0.03125 0.015625 0.046875 0.015625h16.672c0.015625 0 0.03125-0.015625 0.046875-0.015625h29.203v1.9531h-75.172zm-3.7188 3.5156h82.641v1.9531h-82.641z"/>
 <path d="m50.047 46.688c-4.125 0-7.5 3.3594-7.5 7.5s3.3594 7.5 7.5 7.5 7.5-3.3594 7.5-7.5-3.375-7.5-7.5-7.5zm0 13.422c-3.2656 0-5.9375-2.6562-5.9375-5.9375 0-3.2656 2.6562-5.9375 5.9375-5.9375s5.9375 2.6562 5.9375 5.9375c-0.015625 3.2812-2.6719 5.9375-5.9375 5.9375z"/>
 <path d="m50.047 49.859c-0.4375 0-0.78125 0.34375-0.78125 0.78125v3.1406l-0.95312 1.5469c-0.23438 0.375-0.10938 0.84375 0.25 1.0781 0.125 0.078125 0.26562 0.10938 0.40625 0.10938 0.26562 0 0.51562-0.125 0.67188-0.375l1.0781-1.7344c0.078125-0.125 0.10938-0.26562 0.10938-0.40625v-3.3594c0-0.42188-0.35938-0.78125-0.78125-0.78125z"/>
 <path d="m16.484 61.5v4.5c0 0.4375 0.34375 0.78125 0.78125 0.78125h8.4531c0.4375 0 0.78125-0.34375 0.78125-0.78125v-4.5c0-0.4375-0.34375-0.78125-0.78125-0.78125h-8.4531c-0.42188 0-0.78125 0.34375-0.78125 0.78125zm1.5625 0.78125h6.8906v2.9375h-6.8906z"/>
 <path d="m25.719 68.938h-8.4531c-0.4375 0-0.78125 0.34375-0.78125 0.78125v4.5c0 0.4375 0.34375 0.78125 0.78125 0.78125h8.4531c0.4375 0 0.78125-0.34375 0.78125-0.78125v-4.5c0-0.4375-0.34375-0.78125-0.78125-0.78125zm-0.78125 4.4844h-6.8906v-2.9375h6.8906z"/>
 <path d="m82.719 60.719h-8.4531c-0.4375 0-0.78125 0.34375-0.78125 0.78125v4.5c0 0.4375 0.34375 0.78125 0.78125 0.78125h8.4531c0.4375 0 0.78125-0.34375 0.78125-0.78125v-4.5c0-0.4375-0.34375-0.78125-0.78125-0.78125zm-0.78125 4.5h-6.8906v-2.9375h6.8906z"/>
 <path d="m82.719 68.938h-8.4531c-0.4375 0-0.78125 0.34375-0.78125 0.78125v4.5c0 0.4375 0.34375 0.78125 0.78125 0.78125h8.4531c0.4375 0 0.78125-0.34375 0.78125-0.78125v-4.5c0-0.4375-0.34375-0.78125-0.78125-0.78125zm-0.78125 4.4844h-6.8906v-2.9375h6.8906z"/>
<text x="0.0" y="117.5" font-size="5.0" font-weight="bold" font-family="Arbeit Regular, Helvetica, Arial-Unicode, Arial, Sans-serif" fill="#000000">Created by Buildhouse10</text><text x="0.0" y="122.5" font-size="5.0" font-weight="bold" font-family="Arbeit Regular, Helvetica, Arial-Unicode, Arial, Sans-serif" fill="#000000">from Noun Project</text></svg>